<svg id="Capa_1" data-name="Capa 1" xmlns="http://www.w3.org/2000/svg" viewBox="0 0 360 512"><defs><style>.cls-1{fill:#eb1c2c;}.cls-2{fill:#ee5948;}</style></defs><title>country</title><path class="cls-1" d="M256,0C156.7,0,76,80.7,76,180a177.49,177.49,0,0,0,27,94.5L243.8,504.9a14.21,14.21,0,0,0,10.2,6.9,14.93,14.93,0,0,0,15.3-7.2L410.5,272.1A177.51,177.51,0,0,0,436,180C436,80.7,355.3,0,256,0Zm0,270a89.88,89.88,0,0,1-90-90c0-49.5,40.5-90,90-90s90,40.5,90,90A89.68,89.68,0,0,1,256,270Z" transform="translate(-76)"/><path class="cls-2" d="M256,0V90c49.5,0,90,40.5,90,90a89.68,89.68,0,0,1-90,90V512a14.8,14.8,0,0,0,13.3-7.4L410.5,272.1A177.51,177.51,0,0,0,436,180C436,80.7,355.3,0,256,0Z" transform="translate(-76)"/></svg>