<?xml version="1.0" encoding="utf-8"?>
<!-- Generator: Adobe Illustrator 22.1.0, SVG Export Plug-In . SVG Version: 6.00 Build 0)  -->
<svg version="1.1" id="Capa_1" xmlns="http://www.w3.org/2000/svg" xmlns:xlink="http://www.w3.org/1999/xlink" x="0px" y="0px"
	 viewBox="0 0 253.8 69.7" style="enable-background:new 0 0 253.8 69.7;" xml:space="preserve">
<style type="text/css">
	.st0{display:none;}
	.st1{display:inline;}
	.st2{fill:#F37543;}
	.st3{fill:#F05022;}
</style>
<path d="M39.6,16.6c-2,0.4-3.8,0.8-5.8,1.2c-0.3-0.8-0.5-1.6-0.7-2.4c-1.2-4.8-3.8-8.2-8.8-9.2c-5.1-0.9-9.8,0.1-12.9,4.4
	c-1.9,2.6-3.1,5.8-3.8,9c-1.2,5.2-1.1,10.5,0.5,15.6c3.8,12.2,17.8,15.3,26.5,5.9c0.5-0.5,1-1.1,1.4-1.6c0.3,0.1,0.5,0.1,0.6,0.2
	c3.8,3.1,3.9,3.8,0.2,7c-6.6,5.8-14.3,6.7-22.4,4.1C6.6,48.3,2.5,42.3,1,34.6c-1.5-7.4-1.4-14.8,1.5-22C7,1.4,20.8-3.4,31.3,2.5
	C36.5,5.6,38.8,10.5,39.6,16.6z"/>
<path d="M220.6,16.6c2.2,0,4.1-0.2,5.9,0.1c0.6,0.1,1.3,1.1,1.5,1.9c2.7,7.3,5.4,14.7,8.1,22c0.4,1,0.8,1.9,1.4,3.3
	c3-8.5,5.9-16.5,8.5-24.5c0.7-2.2,1.7-3.1,3.9-2.8c1.1,0.2,2.2,0,3.8,0c-0.4,1.1-0.6,1.9-0.9,2.7c-5,13.4-10.1,26.7-15.2,40
	c-0.7,1.9-1.6,3.8-2.7,5.4c-2.6,4-7.1,5.7-11.8,4.7c-2-0.4-3-1.2-2.3-3.4c0.3-0.8,0.4-1.6,0.6-2.5c0.5,0.1,0.9,0.1,1.2,0.2
	c4.7,0.8,6.8-0.3,8.7-4.7c0.1-0.1,0.1-0.3,0.2-0.4c2.4-4.4,2.3-8.5,0.2-13.2c-3.8-8.6-6.9-17.6-10.4-26.4
	C221.2,18.3,220.9,17.7,220.6,16.6z"/>
<path d="M116.7,47.3c-0.3,1.8,1.1,4-1.2,4.7c-3,0.9-6.1-0.7-7-3.4c-0.2-0.6-0.4-1.1-0.6-2c-2.4,2.9-5,4.9-8.6,5.3
	c-1.8,0.2-3.6,0.3-5.4,0.1c-5-0.7-8-3.9-8.4-9.4c-0.3-4.1-0.2-8.3-0.2-12.4c0-3.9,0-7.8,0-11.7c0-1.3,0.3-2,1.8-1.9
	c1.4,0.1,2.8,0,4.5,0c0.1,1,0.1,1.8,0.1,2.6c0,6.6,0,13.2,0,19.9c0,4.7,1.4,6.8,4.7,7.8c3.5,1,7.3-0.4,9.2-4c1-1.9,1.7-4.2,1.8-6.4
	c0.2-5.7,0.1-11.4,0.1-17.2c0-0.8,0-1.6,0-2.6c2.2,0,4.1,0,6.2,0c0,0.9,0.1,1.6,0.1,2.4c0,7.9,0,15.8,0,23.7
	C113.8,45,114.3,46.8,116.7,47.3z"/>
<path d="M132.3,51.6c-1.9,0-3.5,0-5.1,0s-1.1-1.3-1.2-2.2c0-7.7,0-15.3,0-23c0-2,0.1-3.8-2.3-4.9c-0.7-0.3-0.6-2.5-0.5-3.9
	c0-0.4,1.2-0.9,1.9-1c3.7-0.3,5.6,1.3,6.8,6c2.1-3.8,5.3-5.7,9.3-6c8.1-0.6,13.2,4.2,13.5,12.7c0.1,4.6,0.1,9.2,0,13.8
	c0,2.1,0.5,3.7,2.7,4.1c0.1,0.3,0.2,0.4,0.2,0.6c-0.3,1.4,1,3.4-1,4.2c-2.3,1-6.3-0.4-7.3-2.7c-0.7-1.6-1-3.5-1.1-5.2
	c-0.2-4.1,0-8.3-0.1-12.4c0-1.1,0-2.1-0.2-3.2c-0.4-3.8-2.2-5.9-5.4-6.6c-3.5-0.8-7.1,0.6-8.7,3.7c-1,2-1.7,4.4-1.8,6.6
	c-0.2,5.6-0.1,11.1-0.1,16.7C132.3,49.7,132.3,50.5,132.3,51.6z"/>
<path d="M77.1,34.4c-0.3,2-0.4,4-0.9,6c-1.9,7.9-7.7,12.1-15.9,11.8c-7.4-0.3-12.9-5.1-13.9-12.9c-0.5-3.7-0.5-7.6,0.3-11.2
	c1.6-7.5,7.3-11.6,15.1-11.5c7.4,0.1,12.9,4.7,14.4,12.1C76.7,30.6,76.9,32.5,77.1,34.4z M52.1,34.7c0.3,1.8,0.5,4,1.2,6
	c1.2,4,4.3,6.2,8.1,6.3c4,0.1,7.1-2.2,8.4-6.2c1.3-4.1,1.3-8.3,0.1-12.4c-1.3-4.5-4.5-6.9-8.7-6.7c-4.1,0.1-7.3,2.9-8.3,7.3
	C52.5,30.8,52.4,32.6,52.1,34.7z"/>
<path d="M162.3,21.7c0-1.4,0-2.5,0-3.5c0-0.4,0.1-0.9,0.2-1.5c1.7,0,3.3,0,5.2,0c0-3.7,0-7.1,0-10.6c2.2,0,4.1,0,6.4,0
	c0,3.5,0,6.9,0,10.6c3.9,0,7.5,0.1,11,0c2.1-0.1,2.3,0.9,2.3,2.6c0,1.7-0.1,2.7-2.3,2.6c-3.6-0.2-7.2,0-10.8,0
	c0,6.5-0.3,12.8,0.1,18.9c0.4,5.2,5,7.3,9.8,5.1c0.9-0.4,1.7-1,2.5-1.5c2.9,2.9,2.7,4.4-0.8,6.3c-8.6,4.8-17.7-0.1-18.1-9.9
	c-0.2-5.5-0.2-11-0.1-16.5c0-2-0.5-2.8-2.5-2.5C164.4,21.8,163.5,21.7,162.3,21.7z"/>
<path d="M202.4,22.5c4.3-5.7,10.2-7.5,15.1-4.5c-0.8,1.6-1.5,3.3-2.1,4.5c-2.3,0-4.3-0.3-6.2,0.1c-3.7,0.7-6.3,4.7-6.3,9.4
	c-0.1,5.6,0,11.3,0,16.9c0,0.8,0,1.6,0,2.6c-2.1,0-4,0-6.2,0c0-0.9-0.1-1.7-0.1-2.5c0-7.6,0-15.2,0-22.8c0-1.9-0.1-3.6-2.3-4.7
	c-0.7-0.4-0.6-2.5-0.5-3.9c0-0.4,1.2-0.9,1.9-1C199.3,16.4,200.9,17.8,202.4,22.5z"/>
<g id="Capa_2_1_" class="st0">
	<g class="st1">
		<path id="Shape" class="st2" d="M82.9-112.8c0.1-5.2-2.9-9.9-7.6-12.1s-10.3-1.2-14.1,2.3l-21.7,20.4c-5.2,4.9-5.4,13-0.5,18.2
			s13,5.4,18.2,0.5l21.7-20.4C81.3-106.1,82.8-109.4,82.9-112.8L82.9-112.8z"/>
		<path id="Shape_1_" class="st2" d="M181.5-222.1c-17-0.5-33.4,5.7-45.7,17.4c-91.6,86.5-3,2.8-43.3,40.9c-1.6,1.6-2.6,3.7-2.7,6
			c-0.2,9.3,16.2,16.6,26.5,6.8l31.1-29.3c2.4-2.3,5.6-3.5,8.9-3.4c3.3,0.1,6.5,1.5,8.7,3.9l61.4,65.1
			C263.4-154.2,237-220.5,181.5-222.1L181.5-222.1z"/>
		<path id="Shape_2_" class="st2" d="M129.6-63.3c0.1-5.2-2.9-9.9-7.6-12.1c-4.7-2.1-10.3-1.2-14.1,2.3L86.2-52.7
			c-3.3,3.2-4.7,7.8-3.7,12.3s4.4,8,8.8,9.4c4.4,1.3,9.2,0.2,12.5-3l21.7-20.4C128-56.6,129.5-59.9,129.6-63.3L129.6-63.3z"/>
		<path id="Shape_3_" class="st3" d="M223.4-105.7c-0.4-0.3,0.9,0.9-64.4-68.3c-0.8-0.8-1.8-1.3-2.9-1.3c-1.1,0-2.2,0.4-3,1.1
			L122-144.8c-4.9,4.6-11.4,7.1-18.2,6.9c-6.7-0.2-13.1-3.1-17.7-8c-3.1-3.3-4.8-7.6-4.6-12.1c0.1-4.5,2-8.7,5.3-11.8l34.1-32.2
			c-15.7-16.8-39.1-23.9-61.4-18.7s-40.1,22-46.7,44s-0.8,45.8,15,62.4l5.9,6.2c0.4-0.4,0,0,21.7-20.5c6.7-6.3,16.6-7.6,24.6-3.2
			c8,4.4,12.3,13.4,10.7,22.4c6.7-0.9,13.4,1.5,18,6.4s6.6,11.7,5.4,18.4c6.7-0.9,13.4,1.5,18,6.4s6.6,11.7,5.3,18.4
			c6.5-0.9,13.1,1.4,17.7,6.1c4.6,4.7,6.8,11.3,5.8,17.8c5.5,3.2,12.6,1.9,16.5-3.1c4-5,3.7-12.2-0.7-16.8l-55.5-58.8
			c-1-1.1-1.4-2.6-1-4.1c0.4-1.4,1.6-2.5,3-2.9c1.4-0.3,3,0.1,4,1.2l55.5,58.8c3.2,3.3,7.8,4.7,12.3,3.7c4.5-1.1,8-4.4,9.3-8.8
			s0.2-9.2-3-12.5L146-138.1c-1.5-1.7-1.5-4.3,0.2-5.9c1.7-1.6,4.3-1.5,5.9,0.1l55.5,58.8c3.6,3.8,9.1,5,13.9,3.2
			c4.9-1.9,8.1-6.5,8.3-11.7C229.6-98.3,227.3-102.8,223.4-105.7L223.4-105.7z"/>
		<path id="Shape_4_" class="st2" d="M140.5-51.7c-3.4-0.1-6.7,1.2-9.2,3.5l-21.7,20.5c-3.3,3.2-4.7,7.8-3.7,12.3
			c1.1,4.5,4.4,8,8.8,9.4c4.4,1.3,9.2,0.2,12.5-3l21.7-20.4c3.8-3.6,5-9.1,3.2-13.9C150.2-48.3,145.7-51.6,140.5-51.7z"/>
		<path id="Shape_5_" class="st2" d="M106.2-88c0.1-5.2-2.9-9.9-7.6-12.1s-10.3-1.2-14.1,2.3L62.9-77.3c-5.1,4.9-5.3,13-0.4,18.1
			s12.9,5.4,18.1,0.6l21.7-20.5C104.7-81.4,106.1-84.6,106.2-88z"/>
	</g>
	<g class="st1">
		<path d="M389.8-161.9c2.5,0,4.4,1.8,4.4,4.2c0,2.3-1.9,4.1-4.3,4.2c-2.5,0-4.4-1.8-4.4-4.3C385.5-160.2,387.3-161.9,389.8-161.9z"
			/>
		<g>
			<path d="M370.2-116.4c-2.5,1.4-4.8,3.3-7.4,4.1c-6.6,1.9-12.8-1.1-15.5-7.5c-2.7-6.3-2.7-12.8,0-19c3.7-8.7,14-10.9,21.2-4.7
				c0.2,0.1,0.4,0.2,0.9,0.5c0.1-1,0.1-1.7,0.1-2.5c0-5.4,0.1-10.8,0-16.2c0-1.7,0.3-2.4,2.2-2.3c4.8,0.2,4.1-0.7,4.1,4.2
				c0,12.7,0,25.5,0,38.2c0,2-0.2,3.9,2.3,5c0.7,0.3,0.6,2.6,0.8,3.9C374.5-111.1,371.3-112.7,370.2-116.4z M369.6-129.7
				c0-1-0.1-2.1,0-3.1c0.5-4.3-3.1-8-6.9-8.8c-4.2-0.8-8.2,1.2-9.8,5.4c-1.7,4.4-1.7,8.8-0.1,13.2c1.6,4.3,5.6,6.5,10.1,5.6
				c3.5-0.7,6.6-4.6,6.7-8.7C369.6-127.2,369.6-128.5,369.6-129.7z"/>
			<path d="M459.3-117.2c-4.1,5.1-9.3,6.1-15.2,5c-4.5-0.9-7.1-3.8-7.3-8c-0.2-4.5,2.1-8,6.6-9c3.7-0.8,7.5-0.7,11.3-0.9
				c1.3-0.1,2.6,0,4.4,0c-0.2-2.8-0.3-5.3-0.8-7.7c-0.2-1.1-1.3-2.3-2.3-2.8c-2.9-1.6-6-1.6-8.9,0c-2.8,1.5-2.9,4.2-2.4,7.2
				c-1.6,0-3,0.2-4.3-0.1c-0.6-0.1-1.4-1-1.5-1.7c-1.1-4.9,1.6-9.7,6.8-10.8c3.5-0.7,7.2-0.9,10.8-0.4c5.5,0.8,8.4,4.6,8.6,10.5
				c0.2,4.8,0,9.6,0.1,14.5c0,1.9-0.1,3.8,2.3,4.8c0.6,0.3,0.6,2.4,0.5,3.6c0,0.4-1.2,0.9-1.9,0.9
				C462.2-111.8,460.3-113.2,459.3-117.2z M449.2-116.4c4.3-0.3,8.7-3.6,9.5-7.7c0.1-0.4-0.4-1.4-0.7-1.4c-4,0.1-8,0.2-11.9,0.7
				c-1.1,0.1-2.4,1.9-2.6,3.1s0.5,3,1.5,3.8C446-117.1,447.7-116.9,449.2-116.4z"/>
			<path d="M340.1-112.6c-5.8,1.5-9.1-0.7-9.4-6c-0.2-3.9-0.1-7.9-0.1-11.8c0-1.5,0-3-0.1-4.4c-0.3-3.7-2-5.9-5.1-6.7
				c-3.4-0.9-7.1,0.4-8.6,3.4c-1,2-1.7,4.5-1.8,6.7c-0.3,5.5-0.1,11-0.1,16.5c0,0.8,0,1.6,0,2.5c-2.1,0-4,0-6.2,0c0-0.9,0-1.7,0-2.5
				c0-7.5,0-15,0-22.5c0-1.9,0.2-3.8-2.3-4.8c-0.6-0.2-0.6-2.4-0.5-3.6c0-0.4,1.2-0.9,1.8-1c3.8-0.3,5.3,1,6.9,5.6
				c2.1-3.8,5.2-5.6,9.4-5.8c7.8-0.5,12.8,4.1,13.1,12.6c0.2,4.6,0.1,9.2,0.1,13.8c0,1.6,0.4,2.8,2,3.8
				C339.9-116.2,339.8-114,340.1-112.6z"/>
			<path d="M534.8-129.5c-0.3,1.9-0.4,4-0.9,5.9c-1.8,7.7-7.5,12.1-15.3,11.8c-7.6-0.3-13-4.9-14.1-12.9c-0.5-3.6-0.4-7.5,0.3-11
				c1.5-7.4,7.2-11.4,14.7-11.3c7.6,0.1,12.9,4.5,14.5,11.9C534.4-133.2,534.5-131.4,534.8-129.5z M510.1-129.5
				c0.2,1.7,0.3,3.3,0.6,4.9c0.8,4.4,3.9,7.3,7.9,7.5c4.6,0.2,7.7-1.9,9-6.6c1.1-3.9,1.1-7.8-0.1-11.6c-1.3-4.2-4.4-6.5-8.5-6.4
				c-3.9,0.1-7.1,2.8-8.1,7C510.5-133,510.3-131.2,510.1-129.5z"/>
			<path d="M473-141.7c0-1.7,0-3.1,0-4.8c1.2-0.1,2.4-0.2,3.5-0.1c1.3,0.1,1.9-0.4,1.8-1.8c-0.1-2.4,0-4.9,0-7.3
				c0-1.1,0.4-1.6,1.6-1.6c1.5,0.1,2.9,0,4.7,0c0,3.6,0,6.9,0,10.7c3.3,0,6.3,0,9.3,0c4.2,0,4.6,0.5,3.4,5.1c-3.4,0-6.9,0.1-10.4,0
				c-1.9-0.1-2.4,0.6-2.4,2.4c0.1,4.4,0,8.9,0,13.4c0,0.5,0,1,0,1.6c0.4,6.6,5.7,9.2,11.3,5.6c0.4-0.2,0.7-0.5,1.3-0.9
				c0.6,1.2,1.3,2.2,1.6,3.3c0.1,0.4-0.3,1.3-0.7,1.6c-4.2,3.3-8.9,3.5-13.7,1.8c-4.2-1.6-5.8-5.3-6-9.4c-0.3-5.4-0.2-10.8-0.2-16.2
				c0-3.1,0-3.1-3.2-3.1C474.5-141.6,473.8-141.6,473-141.7z"/>
			<path d="M427.3-121.5c0.4,0.1,0.5,0,0.5,0.1c3.6,2.9,3.6,4-0.2,6.7c-10.1,7-23,1.7-25-10.4c-0.7-4.1-0.5-8.1,0.8-12.1
				c1.5-4.8,4.6-7.9,9.5-9.1c3.5-0.9,7.1-0.9,10.5,0.2c4.9,1.6,7.7,6.3,7,11.3c-0.2,1.6-0.8,2.4-2.5,2.2c-1.1-0.1-2.2,0-3.4,0
				c0-0.7,0-1,0-1.4c0.2-6.5-4.9-9.8-10.7-6.7c-1.7,0.9-3.3,2.6-4.1,4.4c-1.8,4.1-1.8,8.6-0.3,12.8c2.6,6.9,11.3,8.7,16.6,3.6
				C426.5-120.5,426.9-121.1,427.3-121.5z"/>
			<path d="M289.9-161.9c6.3-1,6.4-0.9,6.4,5c0,13.9,0,27.9,0,41.8c0,2.9,0,2.9-2.9,2.9c-1.1,0-2.2,0-3.4,0
				C289.9-128.9,289.9-145.3,289.9-161.9z"/>
			<path d="M549.7-141.2c4.8-5.6,9.8-7.2,15-4.7c-0.8,1.7-1.5,3.4-2.3,5.1c-0.4,0-0.6,0.1-0.8,0.1c-7-2.4-11.3,3.4-11.4,8.7
				c-0.1,5.7,0,11.4,0,17.1c0,0.8,0,1.6,0,2.5c-2.2,0-4,0-6.2,0c0-0.9,0-1.7,0-2.5c0-7.5,0-15,0-22.5c0-1.9,0.1-3.8-2.3-4.8
				c-0.6-0.2-0.6-2.4-0.5-3.6c0-0.4,1.2-0.9,1.8-1C546.9-146.9,548.5-145.6,549.7-141.2z"/>
			<path d="M392.8-146.6c0,1.2,0,2.2,0,3.1c0,7.4,0,14.8,0,22.2c0,1.9,0,3.5,2.2,4.6c0.8,0.4,0.6,2.7,0.9,4.1
				c-5.5,1.6-9.2-0.7-9.3-5.9c-0.1-8.8-0.1-17.6-0.1-26.4c0-1.2,0.4-1.8,1.7-1.7C389.6-146.6,391-146.6,392.8-146.6z"/>
		</g>
	</g>
</g>
</svg>
