<?xml version="1.0" encoding="utf-8"?>
<!-- Generator: Adobe Illustrator 22.1.0, SVG Export Plug-In . SVG Version: 6.00 Build 0)  -->
<svg version="1.1" id="Capa_3" xmlns="http://www.w3.org/2000/svg" xmlns:xlink="http://www.w3.org/1999/xlink" x="0px" y="0px"
	 viewBox="0 0 280.9 275" style="enable-background:new 0 0 280.9 275;" xml:space="preserve">
<style type="text/css">
	.st0{fill:#F37543;}
	.st1{fill:#F05022;}
</style>
<g>
	<path id="Shape_11_" class="st0" d="M91.5,105.7c0.1-5-2.8-9.6-7.3-11.6c-4.6-2.1-9.9-1.2-13.5,2.2L49.7,116
		c-5,4.7-5.2,12.6-0.5,17.5s12.6,5.2,17.5,0.5l20.9-19.7C90,112.1,91.4,108.9,91.5,105.7L91.5,105.7z"/>
	<path id="Shape_10_" class="st0" d="M186.7,0.2c-16.4-0.5-32.2,5.5-44.1,16.8c-88.4,83.4-2.9,2.7-41.8,39.4
		c-1.6,1.5-2.5,3.6-2.6,5.8c-0.2,9,15.6,16.1,25.6,6.6l30-28.3c2.3-2.2,5.4-3.4,8.6-3.3c3.2,0.1,6.2,1.4,8.4,3.8l59.2,62.8
		C265.6,65.7,240.1,1.8,186.7,0.2L186.7,0.2z"/>
	<path id="Shape_9_" class="st0" d="M136.6,153.4c0.1-5-2.8-9.6-7.3-11.6c-4.6-2.1-9.9-1.2-13.5,2.2l-20.9,19.7
		c-3.2,3-4.6,7.6-3.6,11.9c1,4.3,4.2,7.7,8.5,9c4.2,1.3,8.9,0.2,12.1-2.9l20.9-19.7C135.1,159.8,136.5,156.7,136.6,153.4
		L136.6,153.4z"/>
	<path id="Shape_8_" class="st1" d="M227,112.5c-0.4-0.3,0.8,0.9-62.2-65.8c-0.7-0.8-1.7-1.2-2.8-1.3c-1.1,0-2.1,0.4-2.9,1.1
		l-30,28.3c-4.7,4.5-11,6.9-17.5,6.7c-6.5-0.2-12.7-3-17.1-7.7c-3-3.1-4.6-7.3-4.5-11.7s2-8.5,5.1-11.4l32.9-31.1
		C113,3.5,90.5-3.4,69,1.6s-38.7,21.2-45,42.4s-0.8,44.1,14.5,60.1l5.7,6c0.4-0.4,0,0,21-19.8c6.4-6,16-7.3,23.7-3.1
		s11.9,12.9,10.3,21.6c6.4-0.8,12.9,1.4,17.4,6.2c4.5,4.7,6.4,11.3,5.1,17.7c6.4-0.8,12.9,1.5,17.4,6.2c4.5,4.7,6.4,11.3,5.1,17.7
		c6.3-0.8,12.6,1.3,17,5.8c4.5,4.5,6.5,10.9,5.6,17.1c5.3,3.1,12.1,1.8,15.9-3c3.8-4.8,3.5-11.7-0.7-16.2l-53.5-56.7
		c-1-1-1.3-2.5-0.9-3.9c0.4-1.4,1.5-2.4,2.9-2.8c1.4-0.3,2.9,0.1,3.8,1.2l53.5,56.7c3,3.2,7.6,4.6,11.9,3.5c4.3-1,7.7-4.2,9-8.5
		c1.3-4.2,0.2-8.9-2.9-12.1l-53.5-56.7c-1.5-1.6-1.4-4.1,0.2-5.6c1.6-1.5,4.1-1.4,5.6,0.1l53.5,56.7c3.4,3.7,8.8,4.9,13.5,3
		c4.7-1.8,7.8-6.2,8-11.2C233,119.6,230.8,115.3,227,112.5L227,112.5z"/>
	<path id="Shape_7_" class="st0" d="M147,164.6c-3.3-0.1-6.5,1.1-8.9,3.4l-20.9,19.7c-3.2,3-4.6,7.6-3.6,11.9c1,4.3,4.2,7.7,8.5,9
		c4.2,1.3,8.9,0.2,12.1-2.9l20.9-19.7c3.6-3.4,4.8-8.8,3-13.4C156.5,167.9,152,164.7,147,164.6z"/>
	<path id="Shape_6_" class="st0" d="M114,129.6c0.1-5-2.8-9.6-7.3-11.6c-4.6-2.1-9.9-1.2-13.5,2.2l-20.9,19.7
		c-4.9,4.7-5.1,12.5-0.4,17.4c4.7,5,12.4,5.2,17.4,0.6l20.9-19.7C112.6,136,113.9,132.8,114,129.6z"/>
</g>
<g>
	<path d="M82.1,270.5c-2.6,1.5-4.9,3.4-7.6,4.2c-6.7,2-13-1.1-15.8-7.6c-2.8-6.4-2.8-13.1,0-19.4c3.8-8.9,14.3-11.1,21.7-4.8
		c0.2,0.1,0.4,0.2,0.9,0.6c0.1-1,0.1-1.8,0.2-2.5c0-5.5,0.1-11.1,0-16.6c0-1.7,0.3-2.4,2.3-2.4c4.9,0.2,4.2-0.7,4.2,4.2
		c0,13,0,26.1,0,39.1c0,2-0.2,4,2.4,5.1c0.7,0.3,0.6,2.7,0.8,4C86.4,276,83.2,274.4,82.1,270.5z M81.4,256.9c0-1.1-0.1-2.1,0-3.2
		c0.5-4.4-3.2-8.2-7.1-9c-4.3-0.9-8.3,1.3-10,5.6c-1.7,4.5-1.8,9-0.1,13.5c1.6,4.4,5.7,6.6,10.3,5.8c3.6-0.7,6.7-4.7,6.8-8.9
		C81.4,259.5,81.4,258.2,81.4,256.9z"/>
	<path d="M173.1,269.8c-4.2,5.2-9.6,6.2-15.5,5.1c-4.6-0.9-7.3-3.9-7.5-8.2c-0.2-4.6,2.1-8.2,6.8-9.2c3.7-0.8,7.7-0.7,11.5-0.9
		c1.3-0.1,2.7,0,4.5,0c-0.3-2.8-0.3-5.4-0.8-7.9c-0.2-1.1-1.3-2.3-2.3-2.9c-3-1.7-6.1-1.6-9.1,0c-2.9,1.5-3,4.3-2.4,7.4
		c-1.6,0-3.1,0.2-4.4-0.1c-0.6-0.1-1.4-1.1-1.6-1.8c-1.2-5,1.7-10,6.9-11.1c3.5-0.8,7.4-0.9,11-0.4c5.6,0.8,8.6,4.7,8.8,10.7
		c0.2,4.9,0,9.9,0.1,14.8c0,2-0.1,3.8,2.3,4.9c0.6,0.3,0.6,2.4,0.5,3.7c0,0.4-1.2,0.9-1.9,1C176.1,275.3,174.2,273.8,173.1,269.8z
		 M162.8,270.5c4.4-0.3,8.8-3.7,9.7-7.9c0.1-0.4-0.5-1.5-0.7-1.5c-4.1,0.1-8.2,0.2-12.2,0.7c-1.1,0.2-2.5,1.9-2.7,3.1
		c-0.2,1.2,0.5,3,1.5,3.9C159.5,269.9,161.3,270,162.8,270.5z"/>
	<path d="M51.3,274.5c-5.9,1.5-9.3-0.7-9.6-6.1c-0.2-4-0.1-8-0.1-12c0-1.5,0-3-0.1-4.5c-0.3-3.8-2-6.1-5.2-6.9
		c-3.5-0.9-7.2,0.4-8.8,3.5c-1.1,2.1-1.8,4.5-1.9,6.9c-0.3,5.6-0.1,11.2-0.1,16.8c0,0.8,0,1.6,0,2.6c-2.2,0-4.1,0-6.4,0
		c0-0.9,0-1.7,0-2.5c0-7.7,0-15.3,0-23c0-1.9,0.2-3.9-2.3-4.9c-0.6-0.2-0.6-2.4-0.5-3.7c0-0.4,1.2-1,1.9-1c3.9-0.3,5.5,1,7.1,5.7
		c2.1-3.8,5.4-5.7,9.6-6c8-0.5,13.1,4.2,13.4,12.8c0.2,4.7,0.1,9.4,0.1,14.1c0,1.7,0.4,2.8,2,3.9C51.1,270.8,51,273,51.3,274.5z"/>
	<path d="M250.2,257.2c-0.3,2-0.4,4-0.9,6c-1.9,7.9-7.7,12.3-15.7,12c-7.8-0.3-13.3-5-14.4-13.1c-0.5-3.7-0.5-7.6,0.3-11.2
		c1.6-7.5,7.3-11.7,15-11.5c7.7,0.1,13.2,4.6,14.8,12.2C249.8,253.4,250,255.3,250.2,257.2z M225,257.2c0.2,1.7,0.3,3.4,0.7,5
		c0.9,4.5,4,7.4,8.1,7.6c4.7,0.2,7.8-2,9.2-6.7c1.1-3.9,1.1-7.9-0.1-11.9c-1.3-4.3-4.5-6.6-8.7-6.5c-4,0.1-7.3,2.8-8.3,7.1
		C225.4,253.6,225.3,255.4,225,257.2z"/>
	<path d="M187.1,244.7c0-1.7,0-3.2,0-4.9c1.2-0.1,2.4-0.2,3.6-0.1c1.4,0.1,1.9-0.4,1.9-1.8c-0.1-2.5,0-5,0-7.5
		c0-1.1,0.4-1.7,1.6-1.6c1.5,0.1,3,0,4.8,0c0,3.6,0,7.1,0,10.9c3.4,0,6.4,0,9.5,0c4.3,0,4.7,0.5,3.5,5.2c-3.5,0-7,0.1-10.6,0
		c-1.9-0.1-2.5,0.6-2.4,2.5c0.1,4.5,0,9.1,0,13.6c0,0.5,0,1.1,0,1.6c0.4,6.7,5.8,9.4,11.5,5.8c0.4-0.2,0.7-0.5,1.4-0.9
		c0.6,1.2,1.3,2.2,1.7,3.4c0.1,0.4-0.3,1.3-0.7,1.6c-4.3,3.4-9.1,3.6-14,1.8c-4.3-1.6-5.9-5.4-6.1-9.6c-0.3-5.5-0.2-11.1-0.2-16.6
		c0-3.2,0-3.2-3.2-3.2C188.6,244.8,188,244.8,187.1,244.7z"/>
	<path d="M140.4,265.3c0.4,0.1,0.5,0,0.5,0.1c3.7,3,3.7,4.1-0.3,6.8c-10.3,7.2-23.5,1.7-25.6-10.6c-0.7-4.2-0.5-8.3,0.8-12.4
		c1.5-4.9,4.7-8,9.7-9.3c3.6-0.9,7.2-0.9,10.8,0.2c5,1.7,7.9,6.4,7.2,11.5c-0.2,1.6-0.8,2.5-2.6,2.3c-1.1-0.1-2.2,0-3.5,0
		c0-0.7,0-1.1,0-1.4c0.2-6.7-5-10-10.9-6.9c-1.7,0.9-3.4,2.7-4.2,4.5c-1.9,4.2-1.9,8.7-0.3,13.1c2.6,7,11.5,8.9,17,3.7
		C139.6,266.4,140,265.8,140.4,265.3z"/>
	<path d="M0,224.1c6.4-1,6.5-0.9,6.5,5.1c0,14.2,0,28.5,0,42.7c0,2.9,0,2.9-3,2.9c-1.1,0-2.2,0-3.5,0C0,257.8,0,241,0,224.1z"/>
	<path d="M265.5,245.2c4.9-5.7,10-7.3,15.4-4.8c-0.8,1.7-1.6,3.5-2.3,5.2c-0.4,0-0.6,0.1-0.8,0.1c-7.2-2.5-11.5,3.5-11.6,8.9
		c-0.1,5.8,0,11.7,0,17.5c0,0.8,0,1.6,0,2.6c-2.2,0-4.1,0-6.4,0c0-0.9,0-1.7,0-2.5c0-7.7,0-15.3,0-23c0-2,0.1-3.9-2.4-4.9
		c-0.6-0.3-0.6-2.4-0.5-3.7c0-0.4,1.2-0.9,1.9-1C262.6,239.3,264.3,240.7,265.5,245.2z"/>
	<path d="M105.1,239.7c0,1.2,0,2.2,0,3.2c0,7.6,0,15.1,0,22.7c0,1.9,0,3.6,2.2,4.7c0.8,0.4,0.7,2.8,0.9,4.2c-5.7,1.7-9.4-0.7-9.5-6
		c-0.2-9-0.1-18-0.1-27c0-1.2,0.4-1.8,1.7-1.8C101.8,239.7,103.3,239.7,105.1,239.7z"/>
	<path d="M102,224.1c2.6,0,4.5,1.9,4.5,4.3c0,2.3-2,4.2-4.4,4.3c-2.6,0-4.5-1.9-4.5-4.4C97.7,225.8,99.5,224.1,102,224.1z"/>
</g>
</svg>
