<?xml version="1.0" encoding="utf-8"?>
<!-- Generator: Adobe Illustrator 22.1.0, SVG Export Plug-In . SVG Version: 6.00 Build 0)  -->
<svg version="1.1" id="Capa_1" xmlns="http://www.w3.org/2000/svg" xmlns:xlink="http://www.w3.org/1999/xlink" x="0px" y="0px"
	 viewBox="0 0 183.1 211.4" style="enable-background:new 0 0 183.1 211.4;" xml:space="preserve">
<style type="text/css">
	.st0{fill:#EB1C2C;}
	.st1{fill:#EE5948;}
	.st2{fill:#FFFFFF;}
</style>
<g>
	<path class="st0" d="M91.8,0C62.5,0,38.6,23.8,38.6,53.2c0,9.9,2.7,19.6,8,27.9l41.6,68.1c0.7,1.2,1.8,1.9,3,2
		c1.7,0.3,3.5-0.4,4.5-2.1l41.7-68.7c5-8.2,7.5-17.6,7.5-27.2C145,23.8,121.2,0,91.8,0z M91.8,79.8c-14.9,0-26.6-12.1-26.6-26.6
		c0-14.6,12-26.6,26.6-26.6s26.6,12,26.6,26.6C118.4,67.6,106.9,79.8,91.8,79.8z"/>
	<path class="st1" d="M91.8,0v26.6c14.6,0,26.6,12,26.6,26.6c0,14.4-11.5,26.6-26.6,26.6v71.5c1.5,0,3.1-0.7,3.9-2.2l41.7-68.7
		c5-8.2,7.5-17.6,7.5-27.2C145,23.8,121.2,0,91.8,0z"/>
</g>
<g>
	<path d="M28.6,173c-1.4,0.3-2.7,0.6-4.2,0.9c-0.2-0.6-0.4-1.1-0.5-1.7c-0.9-3.4-2.7-5.9-6.4-6.6c-3.7-0.7-7.1,0.1-9.3,3.2
		c-1.3,1.9-2.3,4.2-2.8,6.5c-0.9,3.7-0.8,7.6,0.4,11.3c2.7,8.8,12.9,11,19.1,4.2c0.4-0.4,0.7-0.8,1-1.1c0.2,0.1,0.4,0.1,0.4,0.1
		c2.8,2.2,2.8,2.7,0.1,5.1c-4.8,4.2-10.3,4.8-16.2,2.9c-5.6-1.8-8.6-6.1-9.7-11.7c-1.1-5.3-1-10.7,1.1-15.8
		c3.2-8.1,13.2-11.6,20.8-7.3C26.4,165.1,28,168.7,28.6,173z"/>
	<path d="M159.1,173.1c1.6,0,2.9-0.1,4.2,0.1c0.4,0.1,0.9,0.8,1.1,1.4c2,5.3,3.9,10.6,5.8,15.9c0.3,0.7,0.6,1.4,1,2.4
		c2.2-6.1,4.2-11.9,6.2-17.7c0.5-1.6,1.2-2.2,2.8-2c0.8,0.1,1.6,0,2.7,0c-0.3,0.8-0.4,1.3-0.7,1.9c-3.6,9.6-7.3,19.3-10.9,28.9
		c-0.5,1.4-1.1,2.7-1.9,3.9c-1.9,2.9-5.1,4.1-8.5,3.4c-1.4-0.3-2.1-0.9-1.6-2.4c0.2-0.6,0.3-1.1,0.4-1.8c0.4,0.1,0.6,0.1,0.9,0.1
		c3.4,0.6,4.9-0.2,6.3-3.4c0-0.1,0.1-0.2,0.1-0.3c1.7-3.2,1.6-6.1,0.1-9.5c-2.8-6.2-5-12.7-7.5-19.1
		C159.5,174.3,159.4,173.8,159.1,173.1z"/>
	<path d="M84.2,195.2c-0.2,1.3,0.8,2.9-0.9,3.4c-2.2,0.7-4.4-0.5-5.1-2.4c-0.1-0.4-0.3-0.8-0.5-1.5c-1.7,2.1-3.6,3.5-6.2,3.8
		c-1.3,0.1-2.6,0.2-3.9,0.1c-3.6-0.5-5.8-2.8-6.1-6.8c-0.2-3-0.2-6-0.2-8.9c0-2.8,0-5.6,0-8.5c0-0.9,0.2-1.4,1.3-1.4
		c1,0.1,2,0,3.2,0c0,0.7,0.1,1.3,0.1,1.9c0,4.8,0,9.6,0,14.3c0,3.4,1,4.9,3.4,5.6c2.5,0.7,5.2-0.3,6.6-2.9c0.8-1.4,1.2-3,1.3-4.6
		c0.2-4.1,0.1-8.2,0.1-12.4c0-0.6,0-1.2,0-1.8c1.6,0,3,0,4.5,0c0,0.6,0.1,1.2,0.1,1.8c0,5.7,0,11.4,0,17.1
		C82.1,193.6,82.4,194.9,84.2,195.2z"/>
	<path d="M95.4,198.3c-1.4,0-2.5,0-3.7,0c-1.2,0-0.8-1-0.8-1.6c0-5.5,0-11.1,0-16.6c0-1.4,0-2.7-1.7-3.5c-0.5-0.2-0.4-1.8-0.4-2.8
		c0-0.3,0.9-0.7,1.4-0.7c2.7-0.2,4,1,4.9,4.3c1.5-2.7,3.8-4.1,6.7-4.3c5.9-0.4,9.5,3,9.7,9.2c0.1,3.3,0.1,6.6,0,9.9
		c0,1.5,0.3,2.7,2,3c0.1,0.2,0.1,0.3,0.1,0.4c-0.2,1,0.7,2.4-0.7,3c-1.7,0.7-4.5-0.3-5.2-1.9c-0.5-1.2-0.7-2.5-0.8-3.8
		c-0.1-3,0-6,0-8.9c0-0.8,0-1.5-0.1-2.3c-0.3-2.7-1.6-4.3-3.9-4.8c-2.5-0.6-5.2,0.4-6.3,2.7c-0.7,1.5-1.2,3.2-1.3,4.8
		c-0.2,4-0.1,8-0.1,12C95.4,197,95.4,197.6,95.4,198.3z"/>
	<path d="M55.7,185.9c-0.2,1.4-0.3,2.9-0.6,4.3c-1.4,5.7-5.5,8.7-11.4,8.5c-5.3-0.2-9.3-3.7-10-9.3c-0.3-2.6-0.3-5.5,0.2-8
		c1.1-5.4,5.3-8.4,10.9-8.3c5.4,0.1,9.3,3.4,10.4,8.7C55.4,183.2,55.5,184.5,55.7,185.9z M37.6,186.2c0.2,1.3,0.4,2.9,0.8,4.4
		c0.9,2.9,3.1,4.5,5.8,4.5c2.9,0,5.1-1.6,6-4.5c0.9-3,1-6,0.1-9c-0.9-3.2-3.2-4.9-6.3-4.8c-2.9,0.1-5.3,2.1-6,5.3
		C37.8,183.3,37.8,184.6,37.6,186.2z"/>
	<path d="M117.1,176.7c0-1,0-1.8,0-2.5c0-0.3,0.1-0.6,0.2-1.1c1.2,0,2.4,0,3.8,0c0-2.6,0-5.1,0-7.7c1.6,0,3,0,4.6,0c0,2.5,0,5,0,7.6
		c2.8,0,5.4,0.1,8,0c1.5-0.1,1.6,0.7,1.6,1.9c0,1.2-0.1,1.9-1.6,1.9c-2.6-0.1-5.2,0-7.8,0c0,4.7-0.2,9.2,0.1,13.7
		c0.3,3.7,3.6,5.3,7.1,3.7c0.6-0.3,1.2-0.7,1.8-1.1c2.1,2.1,1.9,3.2-0.5,4.6c-6.2,3.5-12.8-0.1-13.1-7.1c-0.2-4-0.1-7.9,0-11.9
		c0-1.4-0.4-2-1.8-1.8C118.6,176.8,117.9,176.7,117.1,176.7z"/>
	<path d="M146,177.3c3.1-4.1,7.4-5.4,10.9-3.3c-0.5,1.2-1.1,2.4-1.5,3.3c-1.7,0-3.1-0.2-4.5,0c-2.7,0.5-4.5,3.4-4.6,6.8
		c-0.1,4.1,0,8.1,0,12.2c0,0.6,0,1.2,0,1.9c-1.5,0-2.9,0-4.5,0c0-0.6-0.1-1.2-0.1-1.8c0-5.5,0-11,0-16.4c0-1.4-0.1-2.6-1.7-3.4
		c-0.5-0.3-0.4-1.8-0.4-2.8c0-0.3,0.9-0.7,1.4-0.7C143.8,172.9,144.9,173.9,146,177.3z"/>
	<path class="st2" d="M37.6,186.2c0.2-1.6,0.3-2.9,0.6-4.1c0.7-3.2,3-5.2,6-5.3c3-0.1,5.3,1.6,6.3,4.8c0.9,3,0.8,6-0.1,9
		c-0.9,2.9-3.2,4.5-6,4.5c-2.8,0-5-1.7-5.8-4.5C37.9,189,37.8,187.5,37.6,186.2z"/>
</g>
</svg>
